# xmcd
#
# Track frame offsets: 
#        150
#        10562
#        30599
#        41572
#        60219
#        76215
#        99325
#        119226
#        135599
#        149952
#        169347
#        184330
#        200323
#        213885
#        228290
#        250369
#        266709
#        284379
#
# Disc length: 4120 seconds
#
# Revision: 0
# Processed by: cddbd v1.5.2PL0 Copyright (c) Steve Scherf et al.
# Submitted via: ExactAudioCopy v0.95b4
#
DISCID=03101612
DTITLE=Various Artist - Koskettavat rakkauslaulut
DYEAR=2004
DGENRE=Country
TTITLE0=Pepe Willberg - Sinua, sinua rakastan
TTITLE1=Berit - Et usko kuinka paljon kaipaankaan
TTITLE2=Tapio Heinonen - Hän
TTITLE3=Jaana Lammi - Jokainen päivä on liikaa
TTITLE4=Jukka Kuoppamäki - Kertokaa se hänelle
TTITLE5=Päivi Mäkinen - Odotusta Pariisissa
TTITLE6=Meiju Suvas - Rakkauden jälkeen
TTITLE7=Erno Lindahl - Maria Louiza
TTITLE8=Peilityyni Orkesteri - Rakkaustarina
TTITLE9=CatCat - Tee päivistäni yöt
TTITLE10=Tauski - Sinä vain
TTITLE11=Muska - Vähän ennen kyyneleitä
TTITLE12=Reijo Taipale - Rakkauden satu
TTITLE13=Kaija Pohjola - Unhoita menneet
TTITLE14=Jaska Mäkynen - Rakkauden sade
TTITLE15=Merja Rantamäki - Sydämesi tyhjä huone
TTITLE16=Juhamatti - Yksin
TTITLE17=Sonja Lumme - Se Pariisin yö
EXTD=
EXTT0=
EXTT1=
EXTT2=
EXTT3=
EXTT4=
EXTT5=
EXTT6=
EXTT7=
EXTT8=
EXTT9=
EXTT10=
EXTT11=
EXTT12=
EXTT13=
EXTT14=
EXTT15=
EXTT16=
EXTT17=
PLAYORDER=
